<svg width="1024" height="1024" viewBox="0 0 1024 1024" fill="none" xmlns="http://www.w3.org/2000/svg">
<g clip-path="url(#clip0_2109_28)">
<rect width="1024" height="1024" rx="512" fill="#0A0A0A"/>
<path d="M682.72 261.96H675.14C649.204 261.96 628.18 282.985 628.18 308.92V316.5C628.18 342.435 649.204 363.46 675.14 363.46H682.72C708.655 363.46 729.68 342.435 729.68 316.5V308.92C729.68 282.985 708.655 261.96 682.72 261.96Z" fill="white"/>
<path d="M675.14 459.099H729.68V715.058C729.68 740.978 708.64 762.018 682.72 762.018H675.14C649.22 762.018 628.18 740.978 628.18 715.058V506.059C628.18 480.139 649.22 459.099 675.14 459.099Z" fill="white"/>
<path d="M388.241 459.2H729.682V466.78C729.682 518.62 687.602 560.7 635.762 560.7H294.32V553.12C294.32 501.28 336.4 459.2 388.241 459.2Z" fill="white"/>
<path d="M395.818 259.761V459.041C395.818 515.061 350.338 560.541 294.318 560.541V361.261C294.318 305.241 339.798 259.761 395.818 259.761Z" fill="white"/>
<path d="M348.86 658.321H341.28C315.345 658.321 294.32 679.346 294.32 705.281V712.861C294.32 738.796 315.345 759.821 341.28 759.821H348.86C374.796 759.821 395.82 738.796 395.82 712.861V705.281C395.82 679.346 374.796 658.321 348.86 658.321Z" fill="white"/>
<path d="M759.063 832.683C690.703 885.423 605.022 916.803 512.002 916.803C288.441 916.803 107.201 735.562 107.201 512.002C107.201 288.441 288.441 107.18 512.002 107.18C735.563 107.18 916.803 288.421 916.803 511.982C916.803 605.762 884.903 692.102 831.383 760.742L886.923 814.983C953.903 732.202 994.024 626.782 994.024 512.002C994.024 245.801 778.203 29.9801 512.002 29.9801C245.801 29.9801 29.9805 245.801 29.9805 512.002C29.9805 778.202 245.801 994.023 512.002 994.023C626.722 994.023 732.063 953.943 814.823 887.043L759.063 832.683Z" fill="white"/>
</g>
<defs>
<clipPath id="clip0_2109_28">
<rect width="1024" height="1024" fill="white"/>
</clipPath>
</defs>
</svg>
