<svg version="1.1" xmlns="http://www.w3.org/2000/svg" viewBox="0 0 1089 229" width="1089" height="229"><defs><clipPath id="source-alpha-boundary-clip" clipPathUnits="userSpaceOnUse"><path d="M123 8H137V9H123ZM111 9H148V10H111ZM108 10H152V11H108ZM104 11H157V12H104ZM101 12H160V13H101ZM96 13H164V14H96ZM94 14H166V15H94ZM92 15H169V16H92ZM88 16H172V17H88ZM86 17H174V18H86ZM85 18H176V19H85ZM82 19H178V20H82ZM80 20H180V21H80ZM78 21H182V22H78ZM77 22H184V23H77ZM75 23H185V24H75ZM73 24H187V25H73ZM72 25H189V26H72ZM70 26H121V27H70ZM139 26H190V27H139ZM69 27H114V28H69ZM146 27H191V28H146ZM67 28H109V29H67ZM151 28H193V29H151ZM66 29H106V30H66ZM154 29H194V30H154ZM65 30H102V31H65ZM158 30H195V31H158ZM64 31H99V32H64ZM161 31H197V32H161ZM62 32H97V33H62ZM163 32H198V33H163ZM61 33H95V34H61ZM165 33H199V34H165ZM60 34H92V35H60ZM168 34H200V35H168ZM59 35H90V36H59ZM170 35H201V36H170ZM58 36H88V37H58ZM172 36H202V37H172ZM57 37H86V38H57ZM173 37H204V38H173ZM282 37H287V38H282ZM338 37H344V38H338ZM397 37H457V38H397ZM511 37H570V38H511ZM624 37H703V38H624ZM738 37H798V38H738ZM854 37H913V38H854ZM966 37H1027V38H966ZM56 38H85V39H56ZM175 38H205V39H175ZM278 38H287V39H278ZM337 38H347V39H337ZM393 38H460V39H393ZM507 38H574V39H507ZM621 38H703V39H621ZM735 38H802V39H735ZM849 38H916V39H849ZM963 38H1030V39H963ZM55 39H83V40H55ZM177 39H206V40H177ZM276 39H287V40H276ZM337 39H349V40H337ZM391 39H462V40H391ZM505 39H576V40H505ZM619 39H703V40H619ZM733 39H805V40H733ZM847 39H919V40H847ZM961 39H1033V40H961ZM54 40H82V41H54ZM178 40H207V41H178ZM275 40H287V41H275ZM337 40H350V41H337ZM389 40H464V41H389ZM503 40H578V41H503ZM617 40H703V41H617ZM731 40H806V41H731ZM846 40H920V41H846ZM960 40H1035V41H960ZM52 41H80V42H52ZM180 41H208V42H180ZM273 41H287V42H273ZM337 41H352V42H337ZM387 41H466V42H387ZM501 41H580V42H501ZM615 41H703V42H615ZM730 41H808V42H730ZM844 41H922V42H844ZM958 41H1036V42H958ZM52 42H79V43H52ZM181 42H209V43H181ZM272 42H287V43H272ZM337 42H353V43H337ZM386 42H467V43H386ZM500 42H581V43H500ZM614 42H703V43H614ZM728 42H809V43H728ZM843 42H923V43H843ZM957 42H1037V43H957ZM51 43H77V44H51ZM183 43H209V44H183ZM271 43H287V44H271ZM337 43H354V44H337ZM385 43H468V44H385ZM499 43H582V44H499ZM613 43H702V44H613ZM727 43H810V44H727ZM842 43H924V44H842ZM956 43H1038V44H956ZM50 44H76V45H50ZM184 44H210V45H184ZM270 44H287V45H270ZM337 44H355V45H337ZM384 44H469V45H384ZM498 44H583V45H498ZM612 44H702V45H612ZM726 44H811V45H726ZM841 44H925V45H841ZM955 44H1039V45H955ZM49 45H75V46H49ZM185 45H211V46H185ZM269 45H287V46H269ZM383 45H470V46H383ZM497 45H584V46H497ZM725 45H812V46H725ZM840 45H926V46H840ZM954 45H1040V46H954ZM337 45H356V47H337ZM611 45H702V47H611ZM48 46H74V47H48ZM187 46H212V47H187ZM382 46H470V47H382ZM497 46H585V47H497ZM725 46H813V47H725ZM839 46H927V47H839ZM953 46H1041V47H953ZM268 46H287V48H268ZM47 47H72V48H47ZM188 47H213V48H188ZM337 47H357V48H337ZM382 47H471V48H382ZM496 47H585V48H496ZM610 47H701V48H610ZM724 47H814V49H724ZM838 47H928V49H838ZM952 47H1042V49H952ZM47 48H71V49H47ZM189 48H214V49H189ZM495 48H586V49H495ZM609 48H701V49H609ZM267 48H287V50H267ZM337 48H358V50H337ZM381 48H472V50H381ZM46 49H70V50H46ZM190 49H214V50H190ZM495 49H587V50H495ZM609 49H700V50H609ZM723 49H815V50H723ZM951 49H1043V50H951ZM837 49H929V51H837ZM45 50H69V51H45ZM191 50H215V51H191ZM266 50H287V51H266ZM608 50H699V51H608ZM722 50H815V51H722ZM951 50H1044V51H951ZM380 50H473V52H380ZM494 50H587V52H494ZM44 51H68V52H44ZM192 51H216V52H192ZM608 51H698V52H608ZM337 50H359V53H337ZM722 51H816V53H722ZM836 51H930V53H836ZM950 51H1044V53H950ZM44 52H67V53H44ZM193 52H217V53H193ZM494 52H588V53H494ZM608 52H697V53H608ZM265 51H287V54H265ZM43 53H66V54H43ZM194 53H217V54H194ZM607 53H696V54H607ZM721 53H816V54H721ZM835 53H930V54H835ZM950 53H1045V54H950ZM379 52H474V55H379ZM42 54H65V55H42ZM195 54H218V55H195ZM607 54H695V55H607ZM337 53H360V56H337ZM493 53H588V56H493ZM42 55H64V56H42ZM196 55H219V56H196ZM607 55H694V56H607ZM41 56H63V57H41ZM197 56H219V57H197ZM607 56H693V57H607ZM607 57H691V58H607ZM40 57H62V59H40ZM198 57H220V59H198ZM607 58H689V59H607ZM721 54H817V60H721ZM835 54H931V60H835ZM949 54H1045V60H949ZM378 55H475V60H378ZM492 56H589V60H492ZM39 59H61V60H39ZM97 59H105V60H97ZM164 59H171V60H164ZM199 59H221V60H199ZM607 59H686V60H607ZM38 60H60V61H38ZM95 60H105V61H95ZM161 60H172V61H161ZM200 60H222V61H200ZM905 60H906V61H905ZM378 60H402V62H378ZM492 60H516V62H492ZM38 61H59V62H38ZM93 61H105V62H93ZM159 61H174V62H159ZM201 61H223V63H201ZM92 62H105V63H92ZM158 62H175V63H158ZM37 62H58V64H37ZM91 63H105V64H91ZM157 63H176V64H157ZM202 63H223V64H202ZM36 64H57V65H36ZM89 64H105V65H89ZM157 64H177V65H157ZM203 64H224V65H203ZM36 65H56V66H36ZM88 65H105V66H88ZM156 65H177V66H156ZM204 65H225V67H204ZM35 66H56V67H35ZM156 66H178V67H156ZM492 62H515V68H492ZM87 66H105V68H87ZM35 67H55V68H35ZM908 60H931V69H908ZM205 67H226V69H205ZM86 68H105V69H86ZM34 68H54V70H34ZM206 69H227V70H206ZM85 69H105V71H85ZM33 70H53V72H33ZM207 70H227V72H207ZM84 71H105V72H84ZM794 60H817V74H794ZM32 72H52V74H32ZM208 72H228V74H208ZM155 67H178V75H155ZM83 72H105V75H83ZM32 74H51V75H32ZM908 69H932V76H908ZM209 74H229V76H209ZM31 75H51V76H31ZM156 75H177V77H156ZM31 76H50V77H31ZM210 76H229V77H210ZM30 77H50V78H30ZM157 77H176V78H157ZM210 77H230V78H210ZM378 62H401V79H378ZM30 78H49V79H30ZM158 78H176V79H158ZM211 78H230V79H211ZM607 60H630V80H607ZM29 79H49V80H29ZM159 79H175V80H159ZM211 79H231V80H211ZM264 54H287V81H264ZM337 56H361V81H337ZM451 60H475V81H451ZM565 60H589V81H565ZM835 60H858V81H835ZM949 60H972V81H949ZM1022 60H1045V81H1022ZM492 68H516V81H492ZM908 76H931V81H908ZM378 79H402V81H378ZM160 80H173V81H160ZM29 80H48V82H29ZM212 80H231V82H212ZM162 81H171V82H162ZM29 82H47V83H29ZM212 82H232V83H212ZM82 75H105V84H82ZM28 83H47V85H28ZM213 83H232V85H213ZM81 84H105V85H81ZM492 81H589V86H492ZM28 85H46V86H28ZM835 81H931V88H835ZM949 81H1045V88H949ZM214 85H233V88H214ZM27 86H46V88H27ZM492 86H588V90H492ZM27 88H45V90H27ZM215 88H233V90H215ZM835 88H930V90H835ZM949 88H1044V91H949ZM26 90H45V91H26ZM215 90H234V92H215ZM492 90H587V92H492ZM835 90H929V92H835ZM949 91H1043V93H949ZM216 92H234V93H216ZM492 92H586V93H492ZM26 91H44V94H26ZM835 92H928V94H835ZM949 93H1042V94H949ZM216 93H235V95H216ZM492 93H585V95H492ZM25 94H44V96H25ZM835 94H927V96H835ZM949 94H1041V96H949ZM492 95H584V96H492ZM492 96H583V97H492ZM835 96H926V97H835ZM949 96H1040V97H949ZM835 97H925V98H835ZM949 97H1039V98H949ZM492 97H582V99H492ZM835 98H924V99H835ZM949 98H1038V99H949ZM217 95H235V100H217ZM492 99H583V100H492ZM835 99H925V100H835ZM949 99H1037V100H949ZM25 96H43V101H25ZM492 100H584V101H492ZM835 100H926V101H835ZM949 100H1035V101H949ZM82 85H105V102H82ZM25 101H42V102H25ZM835 101H927V102H835ZM949 101H1034V102H949ZM217 100H236V103H217ZM492 101H585V103H492ZM82 102H177V103H82ZM949 102H1032V103H949ZM264 81H361V104H264ZM378 81H475V104H378ZM835 102H928V104H835ZM82 103H178V104H82ZM492 103H586V104H492ZM949 103H1029V104H949ZM565 104H586V105H565ZM378 104H402V106H378ZM908 104H929V106H908ZM565 105H587V106H565ZM378 106H401V108H378ZM908 106H930V109H908ZM378 108H402V109H378ZM606 80H630V110H606ZM378 109H401V110H378ZM565 106H588V111H565ZM82 104H179V114H82ZM81 114H179V121H81ZM794 74H818V122H794ZM607 110H630V124H607ZM721 60H744V125H721ZM82 121H179V125H82ZM794 122H817V125H794ZM607 124H693V125H607ZM218 103H236V126H218ZM83 125H179V126H83ZM607 125H697V126H607ZM24 102H42V127H24ZM835 104H858V127H835ZM607 126H698V127H607ZM607 127H699V128H607ZM606 128H700V129H606ZM217 126H236V130H217ZM606 129H701V130H606ZM606 130H702V132H606ZM25 127H43V134H25ZM217 130H235V134H217ZM606 132H703V135H606ZM25 134H44V135H25ZM378 110H402V136H378ZM834 127H858V136H834ZM216 134H235V136H216ZM565 111H589V137H565ZM26 135H44V137H26ZM216 136H234V137H216ZM337 104H361V139H337ZM451 104H475V139H451ZM492 104H516V139H492ZM607 135H703V139H607ZM26 137H45V139H26ZM566 137H589V139H566ZM264 104H287V140H264ZM949 104H972V140H949ZM908 109H931V140H908ZM721 125H817V140H721ZM378 136H401V140H378ZM835 136H858V140H835ZM215 137H234V140H215ZM566 139H588V140H566ZM27 139H45V141H27ZM338 139H360V141H338ZM452 139H474V141H452ZM493 139H515V141H493ZM607 139H702V141H607ZM265 140H287V141H265ZM379 140H401V141H379ZM721 140H816V141H721ZM835 140H857V141H835ZM950 140H972V141H950ZM567 140H588V142H567ZM909 140H930V142H909ZM338 141H359V142H338ZM379 141H400V142H379ZM608 141H702V142H608ZM722 141H816V142H722ZM836 141H857V142H836ZM950 141H971V142H950ZM214 140H233V143H214ZM27 141H46V143H27ZM265 141H286V143H265ZM453 141H473V143H453ZM494 141H514V143H494ZM339 142H359V143H339ZM380 142H400V143H380ZM567 142H587V143H567ZM608 142H701V143H608ZM722 142H815V143H722ZM836 142H856V143H836ZM910 142H929V143H910ZM951 142H970V144H951ZM28 143H46V144H28ZM213 143H233V144H213ZM266 143H285V144H266ZM340 143H358V144H340ZM381 143H399V144H381ZM454 143H472V144H454ZM495 143H513V144H495ZM568 143H586V144H568ZM609 143H700V144H609ZM723 143H815V144H723ZM837 143H856V144H837ZM911 143H929V144H911ZM267 144H284V145H267ZM341 144H357V145H341ZM381 144H398V145H381ZM455 144H471V145H455ZM496 144H512V145H496ZM569 144H585V145H569ZM610 144H699V145H610ZM724 144H814V145H724ZM838 144H855V145H838ZM912 144H928V145H912ZM952 144H969V145H952ZM28 144H47V146H28ZM213 144H232V146H213ZM268 145H283V146H268ZM342 145H356V146H342ZM382 145H397V146H382ZM456 145H470V146H456ZM497 145H511V146H497ZM570 145H584V146H570ZM611 145H698V146H611ZM725 145H813V146H725ZM839 145H854V146H839ZM913 145H927V146H913ZM954 145H968V146H954ZM29 146H47V147H29ZM91 146H96V147H91ZM212 146H232V147H212ZM270 146H282V147H270ZM344 146H355V147H344ZM384 146H396V147H384ZM458 146H468V147H458ZM498 146H510V147H498ZM572 146H583V147H572ZM613 146H697V147H613ZM727 146H811V147H727ZM840 146H852V147H840ZM915 146H925V147H915ZM955 146H966V147H955ZM88 147H99V148H88ZM212 147H231V148H212ZM272 147H280V148H272ZM347 147H352V148H347ZM387 147H394V148H387ZM461 147H465V148H461ZM501 147H508V148H501ZM575 147H580V148H575ZM632 147H662V148H632ZM687 147H692V148H687ZM729 147H809V148H729ZM843 147H850V148H843ZM917 147H922V148H917ZM958 147H964V148H958ZM29 147H48V149H29ZM86 148H101V149H86ZM211 148H231V150H211ZM29 149H49V150H29ZM85 149H102V150H85ZM30 150H49V151H30ZM84 150H103V151H84ZM211 150H230V151H211ZM30 151H50V152H30ZM83 151H103V152H83ZM210 151H230V153H210ZM31 152H50V153H31ZM83 152H104V153H83ZM82 153H104V154H82ZM31 153H51V155H31ZM209 153H229V155H209ZM82 154H105V156H82ZM32 155H52V157H32ZM208 155H228V157H208ZM81 156H105V157H81ZM155 126H179V158H155ZM33 157H53V159H33ZM207 157H227V159H207ZM34 159H54V160H34ZM206 159H227V160H206ZM34 160H55V161H34ZM82 157H105V162H82ZM155 158H178V162H155ZM205 160H226V162H205ZM35 161H55V162H35ZM156 162H178V163H156ZM35 162H56V164H35ZM83 162H104V164H83ZM204 162H225V164H204ZM156 163H177V164H156ZM36 164H57V165H36ZM84 164H103V165H84ZM157 164H177V165H157ZM203 164H224V165H203ZM37 165H58V166H37ZM85 165H102V166H85ZM157 165H176V166H157ZM202 165H224V166H202ZM37 166H59V167H37ZM86 166H101V167H86ZM158 166H175V167H158ZM201 166H223V168H201ZM38 167H59V168H38ZM87 167H100V168H87ZM160 167H174V168H160ZM38 168H60V169H38ZM89 168H98V169H89ZM161 168H173V169H161ZM200 168H222V169H200ZM39 169H61V170H39ZM164 169H170V170H164ZM200 169H221V170H200ZM201 170H221V171H201ZM40 170H62V172H40ZM202 171H220V172H202ZM343 171H346V172H343ZM354 171H357V172H354ZM431 171H441V172H431ZM519 171H522V172H519ZM530 171H533V172H530ZM610 171H617V172H610ZM692 171H707V172H692ZM779 171H789V172H779ZM942 171H956V172H942ZM1032 171H1039V172H1032ZM41 172H63V173H41ZM203 172H219V173H203ZM269 172H270V173H269ZM342 172H347V173H342ZM430 172H443V173H430ZM529 172H534V173H529ZM608 172H619V173H608ZM778 172H792V173H778ZM942 172H957V173H942ZM1030 172H1041V173H1030ZM41 173H64V174H41ZM204 173H219V174H204ZM267 173H270V174H267ZM342 173H348V174H342ZM430 173H444V174H430ZM607 173H620V174H607ZM778 173H793V174H778ZM1029 173H1042V174H1029ZM866 171H870V175H866ZM691 172H708V175H691ZM941 173H957V175H941ZM42 174H65V175H42ZM205 174H218V175H205ZM430 174H445V175H430ZM606 174H620V175H606ZM1028 174H1042V175H1028ZM342 174H349V176H342ZM778 174H794V176H778ZM43 175H66V176H43ZM206 175H217V176H206ZM430 175H446V176H430ZM606 175H621V176H606ZM692 175H707V176H692ZM941 175H956V176H941ZM1028 175H1043V176H1028ZM44 176H67V177H44ZM207 176H217V177H207ZM440 176H446V177H440ZM789 176H794V177H789ZM342 176H350V178H342ZM605 176H611V178H605ZM616 176H621V178H616ZM1028 176H1033V178H1028ZM1038 176H1043V178H1038ZM44 177H68V178H44ZM208 177H216V178H208ZM441 177H447V178H441ZM790 177H794V178H790ZM941 176H946V179H941ZM45 178H69V179H45ZM209 178H215V179H209ZM342 178H351V179H342ZM606 178H612V179H606ZM616 178H619V179H616ZM1028 178H1034V179H1028ZM777 176H783V180H777ZM789 178H794V180H789ZM46 179H70V180H46ZM210 179H214V180H210ZM606 179H616V180H606ZM1028 179H1038V180H1028ZM342 179H352V181H342ZM47 180H71V181H47ZM211 180H213V181H211ZM606 180H618V181H606ZM778 180H794V181H778ZM1029 180H1040V181H1029ZM48 181H72V182H48ZM342 181H353V182H342ZM607 181H620V182H607ZM777 181H793V182H777ZM1029 181H1041V182H1029ZM354 172H358V183H354ZM48 182H73V183H48ZM348 182H353V183H348ZM609 182H620V183H609ZM777 182H792V183H777ZM1030 182H1042V183H1030ZM941 179H956V184H941ZM49 183H75V184H49ZM348 183H358V184H348ZM611 183H621V184H611ZM1032 183H1043V184H1032ZM529 173H535V185H529ZM777 183H791V185H777ZM50 184H76V185H50ZM614 184H622V185H614ZM1036 184H1043V185H1036ZM349 184H358V186H349ZM51 185H77V186H51ZM183 185H185V186H183ZM530 185H535V186H530ZM606 185H610V186H606ZM616 185H622V186H616ZM786 185H792V186H786ZM1028 185H1032V186H1028ZM442 178H447V187H442ZM52 186H79V187H52ZM181 186H187V187H181ZM350 186H358V187H350ZM530 186H534V187H530ZM605 186H610V187H605ZM787 186H792V187H787ZM1027 186H1032V187H1027ZM518 172H523V188H518ZM430 176H435V188H430ZM941 184H946V188H941ZM1039 185H1044V188H1039ZM617 186H622V188H617ZM53 187H80V188H53ZM180 187H188V188H180ZM441 187H446V188H441ZM529 187H534V188H529ZM605 187H611V188H605ZM787 187H793V188H787ZM1027 187H1033V188H1027ZM351 187H358V189H351ZM54 188H82V189H54ZM178 188H189V189H178ZM430 188H446V189H430ZM519 188H525V189H519ZM528 188H534V189H528ZM606 188H612V189H606ZM615 188H622V189H615ZM788 188H794V189H788ZM941 188H949V189H941ZM1027 188H1034V189H1027ZM1038 188H1043V189H1038ZM777 185H783V190H777ZM55 189H83V190H55ZM177 189H190V190H177ZM519 189H534V190H519ZM606 189H621V190H606ZM789 189H794V190H789ZM1028 189H1043V190H1028ZM266 174H271V191H266ZM342 182H347V191H342ZM352 189H358V191H352ZM430 189H445V191H430ZM56 190H85V191H56ZM175 190H191V191H175ZM519 190H533V191H519ZM607 190H620V191H607ZM789 190H795V191H789ZM1029 190H1042V191H1029ZM865 175H870V192H865ZM697 176H702V192H697ZM941 189H957V192H941ZM57 191H87V192H57ZM173 191H192V192H173ZM266 191H270V192H266ZM342 191H346V192H342ZM430 191H443V192H430ZM520 191H532V192H520ZM608 191H620V192H608ZM790 191H795V192H790ZM1030 191H1041V192H1030ZM778 190H782V193H778ZM353 191H358V193H353ZM58 192H89V193H58ZM171 192H193V193H171ZM267 192H270V193H267ZM343 192H346V193H343ZM431 192H441V193H431ZM522 192H531V193H522ZM609 192H618V193H609ZM697 192H701V193H697ZM791 192H795V193H791ZM866 192H870V193H866ZM942 192H957V193H942ZM1031 192H1040V193H1031ZM59 193H90V194H59ZM170 193H194V194H170ZM60 194H92V195H60ZM167 194H195V195H167ZM61 195H95V196H61ZM165 195H196V196H165ZM63 196H97V197H63ZM163 196H196V197H163ZM64 197H99V198H64ZM161 197H196V198H161ZM65 198H103V199H65ZM157 198H195V199H157ZM66 199H106V200H66ZM154 199H194V200H154ZM68 200H109V201H68ZM150 200H193V201H150ZM69 201H114V202H69ZM146 201H191V202H146ZM70 202H121V203H70ZM138 202H190V203H138ZM72 203H188V204H72ZM74 204H187V205H74ZM75 205H185V206H75ZM77 206H183V207H77ZM79 207H181V208H79ZM80 208H179V209H80ZM82 209H177V210H82ZM85 210H175V211H85ZM87 211H173V212H87ZM89 212H171V213H89ZM92 213H168V214H92ZM94 214H166V215H94ZM97 215H163V216H97ZM101 216H160V217H101ZM104 217H156V218H104ZM109 218H151V219H109ZM115 219H145V220H115ZM124 220H136V221H124Z" /></clipPath></defs><g data-alpha-boundary-clip="true" clip-path="url(#source-alpha-boundary-clip)">
<path d="M0 0c359 0 719 0 1089 0 0 76 0 151 0 229-359 0-719 0-1089 0 0-76 0-151 0-229Z" fill="none" transform="translate(0,0)"/>
<path data-fill-layer-id="vtracer-fill-1-fefefe" d="M0 0c1 0 3 0 4 0 3 0 6 0 9 0 4 0 8 0 12 0 3 0 6 0 9 0 1 0 2 0 4 0 8 0 14 1 20 6 8 11 7 22 7 35 0 1 0 1 0 5 0 3 0 7 0 10 0 4 0 9 0 13 0 4 0 8 0 12 0 2 0 3 0 5 0 17 0 17-4 22-4 2-7 2-11 2-1 0-2 0-3 0-2 0-5 0-7 0-2 0-4 0-6 0-4 0-8 0-11 0-5 0-10 0-15 0-4 0-7 0-11 0-2 0-4 0-6 0-2 0-5 0-7 0-2 0-3 0-4 0-5-1-7-2-10-5-2-4-1-7-1-11 0-1 0-2 0-3 0-2 0-5 0-8 0-1 0-3 0-5 0-4 0-8-1-12 0-5 0-9 0-14 0-4 0-8 0-12 0-2 0-3 0-5 0-3 0-5 0-8 0-1 0-3 0-4 1-7 3-13 8-17 8-6 15-6 24-6Z" fill="#FEFEFE" transform="translate(752.2578125,37.37109375)" />
<path data-fill-layer-id="vtracer-fill-1-fefefe" d="M0 0c1 1 1 1 2 2 1 0 1 0 2 1 15 12 24 30 30 47 0 1 1 2 1 2 9 25 5 54-7 77-7 14-7 14-11 18-4 0-4 0-6-2-1-1-2-2-3-3 0 0-1-1-2-2-1-1-1-1-2-2 2-4 4-8 6-11 4-8 7-15 9-23 0-1 0-1 1-3 5-21 0-45-11-64-13-21-33-35-57-41-25-5-49 0-70 14-20 14-32 34-36 58-3 25 2 48 17 69 15 18 36 31 59 33 22 2 41-2 59-13 2-1 3-2 4-3 1 0 1 0 3-1 4 4 7 7 11 11-4 5-7 7-12 10-1 0-2 1-2 1-26 14-55 17-83 9-27-9-51-28-64-54-12-27-14-56-5-84 6-15 14-27 25-38 1-1 2-2 2-2 35-38 101-39 140-6Z" fill="#FEFEFE" transform="translate(196.8125,32.08984375)" />
<path data-fill-layer-id="vtracer-fill-1-fefefe" d="M0 0c1 0 3 0 4 0 3 0 6 0 8 0 5 0 9 0 13 0 3 0 5 0 8 0 1 0 3 0 4 0 9 0 16 1 23 8 4 6 4 11 4 18 0 1 0 2 0 2 0 3 0 6 0 9 0 1 0 3 0 5 1 4 1 8 1 12 0 5 0 10 0 15 0 4 0 8 0 12 0 2 0 3 0 5 0 3 0 6 0 8 0 2 0 3 0 5-1 4-2 6-6 10-5 1-8 1-12-1-4-3-5-6-5-10 0-2 0-3 0-5 0 0 0 0 0-4 0-2 0-3-1-5 0-6 0-12 0-17-16 0-32 0-49 0 0 16 0 16 0 21 0 2 0 3 0 5 0 1 0 2 0 4-1 4-2 8-6 11-3 2-6 2-10 2-4-2-5-3-7-7 0-3 0-6 0-9 0 0 0-1 0-2 0-3 0-5 0-8 0-2 0-4 0-6 0-4 0-8 0-12 0-5 0-10 0-15 0-4 0-8 0-12 0-1 0-3 0-5 0-3 0-5 0-8 0-1 0-3 0-4 0-7 3-13 8-17 8-5 14-5 23-5Z" fill="#FEFEFE" transform="translate(409.90625,37.46875)" />
<path data-fill-layer-id="vtracer-fill-1-fefefe" d="M0 0c1 0 1 0 4 0 3 0 6 0 9 0 4 0 8 0 13 0 2 0 5 0 8 0 1 0 1 0 4 0 8 0 14 1 20 6 1 1 1 2 2 2 0 1 1 1 2 2 4 7 3 15 3 23 0 1 0 2 0 3 0 7 0 15-5 22 0 0 0 1-1 1 1 3 2 6 4 8 3 7 2 14 2 21 0 1 0 2 0 3 0 6 0 10-3 15-3 3-5 3-8 4-5-1-7-3-11-7-1-4-1-4-1-8 0-2 0-3 0-5 0-2 1-4 1-5 0-6 0-12 0-19-17 0-34 0-52 0 0 19 0 19 0 24 0 2 1 3 1 5 0 1 0 3 0 4-1 5-2 7-6 9-3 2-6 2-10 1-4-2-6-4-7-9 0-2 0-5 0-7 0-2 0-3 0-5 0-2 0-3 0-5 0-2 0-4 0-5 0-4 0-8 0-12 0-4 0-9 0-14 0-3 0-7 0-11 0-1 0-3 0-5 0-22 0-22 6-29 7-7 16-7 25-7Z" fill="#FEFEFE" transform="translate(865.96484375,37.56640625)" />
<path data-fill-layer-id="vtracer-fill-1-fefefe" d="M0 0c1 0 2 0 4 0 0 0 0 0 3 0 1 0 1 0 4 0 3 0 6 0 9 0 4 0 8 0 13 0 2 0 5 0 8 0 1 0 2 0 4 0 8 0 15 0 21 6 7 8 6 16 6 27 0 1 0 3 0 4 0 8 0 14-4 20-1 2-1 3-2 4 0 1 1 2 2 2 5 8 4 15 4 24 0 0 0 0 0 4 0 10 0 10-2 15-4 3-7 3-12 3-5-2-6-3-8-8 0-2 0-5 0-8 0-1 0-3 0-4 0-2 0-4 0-5 0-6 0-12 0-18-17 0-34 0-51 0 0 17 0 17 0 23 0 1 0 3 0 4 0 2 0 3 0 5 0 4-2 7-5 10-3 2-6 2-10 1-5-3-5-3-7-7 0-2 0-5 0-8 0 0 0-1 0-2 0-3 0-5 0-8 0-1 0-2 0-3 0-5 0-10 0-15-1-4-1-8-1-12 0-5 0-10 0-14 0-2 0-4 0-6 0-10 0-18 6-27 5-5 10-7 18-7Z" fill="#FEFEFE" transform="translate(516.137939453125,37.70947265625)" />
<path data-fill-layer-id="vtracer-fill-1-fefefe" d="M0 0c1 0 2 0 4 0 0 0 0 0 4 0 1 0 3 0 4 0 3 0 6 0 9 0 4 0 8 0 13 0 3 0 6 0 8 0 2 0 3 0 4 0 9 0 15 0 21 6 0 1 1 2 1 2 0 0 0 0 2 2 4 7 3 14 3 22 0 1 0 3 0 4 0 9-1 16-6 23-7 7-16 8-26 8-1 0-2 0-4 0-3 0-7 0-11 0-2 0-5 0-8 0-6 0-12 0-18 0 0 1 0 1 0 3 0 3 0 6 0 10 0 1 0 2 0 3 0 19 0 19-4 23-4 3-6 4-11 3-4-2-6-3-7-6-1-4-1-7-1-11 0-1 0-2 0-4 0-1 0-3 0-4 0-2 0-3 0-5 0-3 0-6 0-9 0-5 0-10 0-15 0-3 0-6 0-9 0-2 0-3 0-5 0-27 0-27 6-34 0 0 1-1 2-1 0-1 1-2 2-2 4-3 8-4 13-4Z" fill="#FEFEFE" transform="translate(972.223876953125,37.70947265625)" />
<path data-fill-layer-id="vtracer-fill-1-fefefe" d="M0 0c0 14 1 28 1 43 16 0 32 0 49 0 0-14 1-28 1-43 9 1 11 1 17 7 5 6 5 11 5 18 0 1 0 1 0 3 0 2 0 5 0 8 0 1 0 2 0 3 0 4 0 9 0 14 0 4 0 8 0 12 0 5 1 10 1 15 0 2 0 4 0 6 0 2 0 5 0 8 0 1 0 3 0 4-1 5-3 7-6 10-3 2-6 1-9 1-4-2-6-3-8-7 0-4 0-4 0-8 0-2 0-3 0-5 0-2 0-3 0-5 0-6 0-12 0-18-17 0-34 0-51 0 0 17 0 17 0 22 0 1 0 3 0 4 0 1 0 3 0 4 0 5-1 8-4 11-4 3-7 3-12 2-4-2-5-3-6-7-1-4-1-8-1-12 0-1 0-2 0-3 0-2 0-5 0-7 0-2 0-4 0-6 0-4 0-7 0-11 0-5 0-10 0-15 0-3 0-7 0-11 0-2 0-3 0-5 0-3 0-5 0-8 0-1 0-3 0-4 1-6 4-11 8-15 6-4 8-5 15-5Z" fill="#FEFEFE" transform="translate(287,38)" />
<path data-fill-layer-id="vtracer-fill-1-fefefe" d="M0 0c2 0 3 0 5 0 2 0 3 0 5 0 2 0 3 0 5 0 5 0 10 0 14 0 5 0 10 0 14 0 10 0 19 0 28 0-1 8-1 12-7 17-6 4-11 5-17 5-1 0-1 0-4 0-1 0-2 0-3 0-1 0-2 0-3 0-4 0-8 0-12 0-4 0-4 0-27 0 1 21 1 42 1 64 3 0 3 0 14 0 5 0 9 0 14 0 3 1 6 1 9 1 5 0 9 0 13 0 1 0 1 0 5 0 1 0 2 0 4 0 1 0 2 0 3 0 4 0 5 1 8 3 3 4 3 8 2 13-2 4-4 5-8 6-2 0-5 0-7 0-2 0-3 0-5 0-2 0-3 0-5 0-1 0-1 0-3 0-4 1-9 1-13 1-5 0-10 0-15 0-3 0-7 0-10 0-2 0-4 0-6 0-2 0-5 0-7 0-1 0-3 0-4 0-4-1-7-2-10-5-2-4-2-7-2-12 0 0 0-1 0-2 0-3 0-5 0-8 0-2 0-4 0-5 0-4 0-8 0-12 0-5 0-10 0-15 0-3 0-7 0-11 0-2 0-4 0-5 0-22 0-22 6-29 6-5 10-6 18-6Z" fill="#FEFEFE" transform="translate(630.819580078125,37.77294921875)" />
<path data-fill-layer-id="vtracer-fill-1-fefefe" d="M0 0c0 14 0 28 0 42 24 0 48 1 73 1 0 9 0 19 0 28 0 2 0 2 0 9 0 2 0 5 0 7 0 1 0 1 0 4 0 7 0 12-5 17-3 2-6 1-10 1-4-2-5-3-7-7 0-3 0-6 0-8 0-1 0-2 0-3 0-3 0-5 0-8 0-2 0-3 0-5 0-4 0-9 0-13-1 0-2 0-3 0-8 0-17 0-25 0-5 0-9 0-14 0-4 0-8 0-13 0-2 0-4 0-7 0-1 0-3 0-4 0-1 0-1 0-4 0-3 0-3 0-4-1 0-3 0-6 0-10 0-1 0-2 0-3 0-2 0-4 0-6 0-3 0-6 0-9 0-2 0-4 0-6 0-1 0-2 0-3 0-8 1-14 6-21 5-5 9-8 17-6Z" fill="#FEFEFE" transform="translate(105,60)" />
<path d="M0 0c17 0 34 0 52 0 0 9 0 18 0 27 0 3 0 6 0 10 0 4 0 8 0 13 0 1 0 3 0 4 0 1 0 3 0 4 0 1 0 2 0 3 0 3 0 3-1 4-4 0-7 0-11 0-1 0-2 0-3 0-4 0-8 0-12 0-8 0-16 0-25 0 0-21 0-43 0-65Z" fill="none" transform="translate(743,60)"/>
<path d="M0 0c2 0 4 0 6 0 1 0 1 0 4 0 4 0 7 0 11 0 2 0 5 0 7 0 6 0 12 0 18 0 0 7 0 14 0 21-6 1-11 1-17 1-1 0-1 0-3 0-2 0-4 0-6 0-3 0-6 0-9 0-2 0-4 0-6 0-1 0-2 0-3 0-7 0-7 0-8-1 0-3 0-7 0-10 0-1 0-2 0-3 0-8 0-8 6-8Z" fill="none" transform="translate(976.795166015625,59.886474609375)"/>
<path d="M0 0c7 0 14 0 22 0 2 0 5 0 7 0 4 0 7 0 11 0 1 0 2 0 3 0 3 0 5 0 8 0 1 1 1 1 1 5 0 2 0 4 0 6 0 1 0 2 0 3 0 2 0 5 0 7-5 1-11 1-16 1-1 0-2 0-3 0-2 0-5 0-7 0-3 0-6 0-9 0-2 0-4 0-6 0-1 0-2 0-3 0-7 0-7 0-8-1 0-4 0-7 0-11 0-1 0-2 0-3 0-2 0-5 0-7Z" fill="none" transform="translate(857,60)"/>
<path d="M0 0c17 0 34 0 51 0 0 7 0 14 0 21-17 0-34 0-51 0 0-7 0-14 0-21Z" fill="none" transform="translate(515,60)"/>
<path d="M0 0c17 0 34 0 51 0 0 7 0 14 0 21-17 0-34 0-51 0 0-7 0-14 0-21Z" fill="none" transform="translate(401,60)"/>
<path data-fill-layer-id="vtracer-fill-1-fefefe" d="M0 0c4 3 6 4 7 9 0 4 0 6-3 10-3 2-5 3-10 3-3-1-5-2-8-5-2-4-1-7-1-11 5-6 8-7 15-6Z" fill="#FEFEFE" transform="translate(171,60)" />
<path d="M0 0c3 2 4 3 6 6 0 5 1 8-2 13-4 3-6 3-11 3-4-2-6-3-8-7-1-4-1-5 0-9 4-6 7-7 15-6Z" fill="#FFFFFF" transform="translate(98,147)"/>
<path data-fill-layer-id="vtracer-fill-2-fdfdfd" d="M0 0c10-1 10-1 14 2 2 3 2 6 2 10-1 4-1 4-3 7-3 1-5 1-8 1-1 0-2 0-3 0 0 0-1 0-2 0 0-3 0-6-1-8 0-2 0-3 0-5 0-4 0-4 1-7Z" fill="#FDFDFD" transform="translate(431,172)" />
<path data-fill-layer-id="vtracer-fill-3-fdfcfc" d="M0 0c10 0 10 0 13 0 3 3 3 3 3 6 0 2 0 2-3 5 1 3 3 6 4 9-2 0-2 0-5-1-2-2-3-4-5-6-1 0-2-1-3-1 0 3 0 5 0 8-1 0-3 0-4 0 0-7 0-13 0-20Z" fill="#FDFCFC" transform="translate(778,172)" />
<path data-fill-layer-id="vtracer-fill-4-fdfbfb" d="M0 0c4 1 4 1 6 3 0 1 0 1 1 3 1 1 1 2 2 3 0 1 1 1 1 2 0-3 1-7 1-10 1 0 3-1 4-1 0 7 0 13 0 20-5-1-5-1-7-3 0-1-1-2-1-3-1-1-1-2-2-3 0 0 0 0-1-2 0 4-1 7-1 11-1 0-2 0-3 0-1-6-2-14 0-20Z" fill="#FDFBFB" transform="translate(343,172)" />
<path data-fill-layer-id="vtracer-fill-3-fdfcfc" d="M0 0c3 1 3 1 5 3 0 1 0 3 0 4-1 0-2-1-4-1-1 0-3-1-5-1 0 1 0 1 0 2 2 0 3 1 5 2 2 1 2 1 4 2 2 4 2 4 1 7-2 3-2 3-6 4-4 0-4 0-8-2 0-3 0-3-1-5 4 1 4 1 8 3 1 0 2-1 2-1 0-1 0-2 0-3-1-1-3-1-4-2-4-2-4-2-6-4 0-3 0-3 2-6 3-2 3-2 7-2Z" fill="#FDFCFC" transform="translate(1036.6875,171.0625)" />
<path data-fill-layer-id="vtracer-fill-5-fdfbfc" d="M0 0c1 1 1 3 2 4-1 0-3 1-4 1 0-1-1-2-1-3-2 0-3 1-5 1 0 1 0 1 0 2 1 0 1 1 2 1 1 0 2 1 2 1 1 0 2 1 3 1 2 1 2 1 3 2 0 4 0 6-2 9-5 1-7 1-12-1-1-3-1-3-1-5 4 1 4 1 5 2 2 0 3 0 5 0 0-1 0-2 0-3-1-1-3-1-4-2-5-2-5-2-6-4 0-4 1-5 3-7 4-1 6 0 10 1Z" fill="#FDFBFC" transform="translate(619,173)" />
<path data-fill-layer-id="vtracer-fill-6-fcfcfc" d="M0 0c5 0 9 0 14 0 0 1 0 2 0 3-3 0-7 0-10 0 0 2 0 3 0 5 3 0 6 0 9 0 0 1 0 2 0 3-3 0-6 0-9 0 0 2 0 4 0 6 3 0 7 0 10 0 0 1 1 2 1 3-5 0-10 0-15 0 0-7 0-13 0-20Z" fill="#FCFCFC" transform="translate(942,172)" />
<path data-fill-layer-id="vtracer-fill-7-fcf9f9" d="M0 0c1 0 2 0 3 0 0 1 0 2 0 3 0 2 0 3 0 4 0 2 1 3 1 5 0 3 0 3 2 5 1 0 3-1 4-1 0-5 1-10 1-15 1 0 3-1 4-1 0 3 0 5 0 8 0 1 0 3 0 4 0 4 0 4-2 7-3 2-3 2-7 2-4-1-4-1-6-4-1-4-1-7-1-11 0-1 0-2 0-3 0-2 0-2 1-3Z" fill="#FCF9F9" transform="translate(519,172)" />
<path d="M0 0c3 0 3 0 4 2 2 3 2 6 2 9-1 1-1 1-2 3-4 1-4 1-7 0 0-2 0-4 0-6 0-1 0-3 0-4 0-4 0-4 3-4Z" fill="none" transform="translate(437.375,174.6875)"/>
<path data-fill-layer-id="vtracer-fill-8-fcfbfb" d="M0 0c5 0 10 0 15 0 0 1 0 2 0 3-2 0-4 0-6 0 0 6 0 11 0 17-1 0-2 0-3 0-1-6-1-11-1-17-2 0-3 0-5 0 0-1 0-2 0-3Z" fill="#FCFBFB" transform="translate(692,172)" />


<path d="M0 0c2 0 5 0 7 0 0 2 1 3 1 5-1 1-1 1-5 1-1 0-2 0-3 0 0-2 0-4 0-6Z" fill="none" transform="translate(782,175)"/>
</g></svg>